<svg width="100" height="100" viewBox="0 0 100 100" fill="none" xmlns="http://www.w3.org/2000/svg">
<rect width="100" height="100" rx="14" fill="url(#paint0_linear_90019_94)"/>
<g filter="url(#filter0_ddi_90019_94)">
<mask id="path-2-inside-1_90019_94" fill="white">
<path d="M37.291 27.1818H46.6547V36.5455H37.291V27.1818ZM37.291 36.5455H46.6547V45.9091H37.291V36.5455ZM37.291 45.9091H46.6547V55.2727H37.291V45.9091ZM37.291 55.2727H46.6547V64.6364H37.291V55.2727ZM37.291 64.6364H46.6547V74H37.291V64.6364ZM46.6547 27.1818H56.0183V36.5455H46.6547V27.1818ZM56.0183 36.5455H65.3819V45.9091H56.0183V36.5455ZM56.0183 45.9091H65.3819V55.2727H56.0183V45.9091ZM56.0183 55.2727H65.3819V64.6364H56.0183V55.2727ZM46.6547 64.6364H56.0183V74H46.6547V64.6364Z"/>
</mask>
<path d="M37.291 27.1818H46.6547V36.5455H37.291V27.1818ZM37.291 36.5455H46.6547V45.9091H37.291V36.5455ZM37.291 45.9091H46.6547V55.2727H37.291V45.9091ZM37.291 55.2727H46.6547V64.6364H37.291V55.2727ZM37.291 64.6364H46.6547V74H37.291V64.6364ZM46.6547 27.1818H56.0183V36.5455H46.6547V27.1818ZM56.0183 36.5455H65.3819V45.9091H56.0183V36.5455ZM56.0183 45.9091H65.3819V55.2727H56.0183V45.9091ZM56.0183 55.2727H65.3819V64.6364H56.0183V55.2727ZM46.6547 64.6364H56.0183V74H46.6547V64.6364Z" fill="black"/>
<path d="M37.291 27.1818V26.1818H36.291V27.1818H37.291ZM46.6547 27.1818H47.6547V26.1818H46.6547V27.1818ZM46.6547 36.5455V37.5455H47.6547V36.5455H46.6547ZM37.291 36.5455H36.291V37.5455H37.291V36.5455ZM37.291 36.5455V35.5455H36.291V36.5455H37.291ZM46.6547 36.5455H47.6547V35.5455H46.6547V36.5455ZM46.6547 45.9091V46.9091H47.6547V45.9091H46.6547ZM37.291 45.9091H36.291V46.9091H37.291V45.9091ZM37.291 45.9091V44.9091H36.291V45.9091H37.291ZM46.6547 45.9091H47.6547V44.9091H46.6547V45.9091ZM46.6547 55.2727V56.2727H47.6547V55.2727H46.6547ZM37.291 55.2727H36.291V56.2727H37.291V55.2727ZM37.291 55.2727V54.2727H36.291V55.2727H37.291ZM46.6547 55.2727H47.6547V54.2727H46.6547V55.2727ZM46.6547 64.6364V65.6364H47.6547V64.6364H46.6547ZM37.291 64.6364H36.291V65.6364H37.291V64.6364ZM37.291 64.6364V63.6364H36.291V64.6364H37.291ZM46.6547 64.6364H47.6547V63.6364H46.6547V64.6364ZM46.6547 74V75H47.6547V74H46.6547ZM37.291 74H36.291V75H37.291V74ZM46.6547 27.1818V26.1818H45.6547V27.1818H46.6547ZM56.0183 27.1818H57.0183V26.1818H56.0183V27.1818ZM56.0183 36.5455V37.5455H57.0183V36.5455H56.0183ZM46.6547 36.5455H45.6547V37.5455H46.6547V36.5455ZM56.0183 36.5455V35.5455H55.0183V36.5455H56.0183ZM65.3819 36.5455H66.3819V35.5455H65.3819V36.5455ZM65.3819 45.9091V46.9091H66.3819V45.9091H65.3819ZM56.0183 45.9091H55.0183V46.9091H56.0183V45.9091ZM56.0183 45.9091V44.9091H55.0183V45.9091H56.0183ZM65.3819 45.9091H66.3819V44.9091H65.3819V45.9091ZM65.3819 55.2727V56.2727H66.3819V55.2727H65.3819ZM56.0183 55.2727H55.0183V56.2727H56.0183V55.2727ZM56.0183 55.2727V54.2727H55.0183V55.2727H56.0183ZM65.3819 55.2727H66.3819V54.2727H65.3819V55.2727ZM65.3819 64.6364V65.6364H66.3819V64.6364H65.3819ZM56.0183 64.6364H55.0183V65.6364H56.0183V64.6364ZM46.6547 64.6364V63.6364H45.6547V64.6364H46.6547ZM56.0183 64.6364H57.0183V63.6364H56.0183V64.6364ZM56.0183 74V75H57.0183V74H56.0183ZM46.6547 74H45.6547V75H46.6547V74ZM37.291 27.1818V28.1818H46.6547V27.1818V26.1818H37.291V27.1818ZM46.6547 27.1818H45.6547V36.5455H46.6547H47.6547V27.1818H46.6547ZM46.6547 36.5455V35.5455H37.291V36.5455V37.5455H46.6547V36.5455ZM37.291 36.5455H38.291V27.1818H37.291H36.291V36.5455H37.291ZM37.291 36.5455V37.5455H46.6547V36.5455V35.5455H37.291V36.5455ZM46.6547 36.5455H45.6547V45.9091H46.6547H47.6547V36.5455H46.6547ZM46.6547 45.9091V44.9091H37.291V45.9091V46.9091H46.6547V45.9091ZM37.291 45.9091H38.291V36.5455H37.291H36.291V45.9091H37.291ZM37.291 45.9091V46.9091H46.6547V45.9091V44.9091H37.291V45.9091ZM46.6547 45.9091H45.6547V55.2727H46.6547H47.6547V45.9091H46.6547ZM46.6547 55.2727V54.2727H37.291V55.2727V56.2727H46.6547V55.2727ZM37.291 55.2727H38.291V45.9091H37.291H36.291V55.2727H37.291ZM37.291 55.2727V56.2727H46.6547V55.2727V54.2727H37.291V55.2727ZM46.6547 55.2727H45.6547V64.6364H46.6547H47.6547V55.2727H46.6547ZM46.6547 64.6364V63.6364H37.291V64.6364V65.6364H46.6547V64.6364ZM37.291 64.6364H38.291V55.2727H37.291H36.291V64.6364H37.291ZM37.291 64.6364V65.6364H46.6547V64.6364V63.6364H37.291V64.6364ZM46.6547 64.6364H45.6547V74H46.6547H47.6547V64.6364H46.6547ZM46.6547 74V73H37.291V74V75H46.6547V74ZM37.291 74H38.291V64.6364H37.291H36.291V74H37.291ZM46.6547 27.1818V28.1818H56.0183V27.1818V26.1818H46.6547V27.1818ZM56.0183 27.1818H55.0183V36.5455H56.0183H57.0183V27.1818H56.0183ZM56.0183 36.5455V35.5455H46.6547V36.5455V37.5455H56.0183V36.5455ZM46.6547 36.5455H47.6547V27.1818H46.6547H45.6547V36.5455H46.6547ZM56.0183 36.5455V37.5455H65.3819V36.5455V35.5455H56.0183V36.5455ZM65.3819 36.5455H64.3819V45.9091H65.3819H66.3819V36.5455H65.3819ZM65.3819 45.9091V44.9091H56.0183V45.9091V46.9091H65.3819V45.9091ZM56.0183 45.9091H57.0183V36.5455H56.0183H55.0183V45.9091H56.0183ZM56.0183 45.9091V46.9091H65.3819V45.9091V44.9091H56.0183V45.9091ZM65.3819 45.9091H64.3819V55.2727H65.3819H66.3819V45.9091H65.3819ZM65.3819 55.2727V54.2727H56.0183V55.2727V56.2727H65.3819V55.2727ZM56.0183 55.2727H57.0183V45.9091H56.0183H55.0183V55.2727H56.0183ZM56.0183 55.2727V56.2727H65.3819V55.2727V54.2727H56.0183V55.2727ZM65.3819 55.2727H64.3819V64.6364H65.3819H66.3819V55.2727H65.3819ZM65.3819 64.6364V63.6364H56.0183V64.6364V65.6364H65.3819V64.6364ZM56.0183 64.6364H57.0183V55.2727H56.0183H55.0183V64.6364H56.0183ZM46.6547 64.6364V65.6364H56.0183V64.6364V63.6364H46.6547V64.6364ZM56.0183 64.6364H55.0183V74H56.0183H57.0183V64.6364H56.0183ZM56.0183 74V73H46.6547V74V75H56.0183V74ZM46.6547 74H47.6547V64.6364H46.6547H45.6547V74H46.6547Z" fill="#1C1C21" mask="url(#path-2-inside-1_90019_94)"/>
</g>
<defs>
<filter id="filter0_ddi_90019_94" x="33.291" y="27.1818" width="36.0908" height="54.8182" filterUnits="userSpaceOnUse" color-interpolation-filters="sRGB">
<feFlood flood-opacity="0" result="BackgroundImageFix"/>
<feColorMatrix in="SourceAlpha" type="matrix" values="0 0 0 0 0 0 0 0 0 0 0 0 0 0 0 0 0 0 127 0" result="hardAlpha"/>
<feOffset dy="4"/>
<feGaussianBlur stdDeviation="2"/>
<feComposite in2="hardAlpha" operator="out"/>
<feColorMatrix type="matrix" values="0 0 0 0 0 0 0 0 0 0 0 0 0 0 0 0 0 0 0.25 0"/>
<feBlend mode="normal" in2="BackgroundImageFix" result="effect1_dropShadow_90019_94"/>
<feColorMatrix in="SourceAlpha" type="matrix" values="0 0 0 0 0 0 0 0 0 0 0 0 0 0 0 0 0 0 127 0" result="hardAlpha"/>
<feOffset dy="4"/>
<feGaussianBlur stdDeviation="2"/>
<feComposite in2="hardAlpha" operator="out"/>
<feColorMatrix type="matrix" values="0 0 0 0 0 0 0 0 0 0 0 0 0 0 0 0 0 0 0.25 0"/>
<feBlend mode="normal" in2="effect1_dropShadow_90019_94" result="effect2_dropShadow_90019_94"/>
<feBlend mode="normal" in="SourceGraphic" in2="effect2_dropShadow_90019_94" result="shape"/>
<feColorMatrix in="SourceAlpha" type="matrix" values="0 0 0 0 0 0 0 0 0 0 0 0 0 0 0 0 0 0 127 0" result="hardAlpha"/>
<feOffset dy="4"/>
<feGaussianBlur stdDeviation="2"/>
<feComposite in2="hardAlpha" operator="arithmetic" k2="-1" k3="1"/>
<feColorMatrix type="matrix" values="0 0 0 0 0 0 0 0 0 0 0 0 0 0 0 0 0 0 0.25 0"/>
<feBlend mode="normal" in2="shape" result="effect3_innerShadow_90019_94"/>
</filter>
<linearGradient id="paint0_linear_90019_94" x1="50" y1="0" x2="50" y2="100" gradientUnits="userSpaceOnUse">
<stop stop-color="#EBF3FA"/>
<stop offset="1" stop-color="#DFEDFA"/>
</linearGradient>
</defs>
</svg>
